# xmcd
#
# Track frame offsets: 
#        300
#        35597
#        52476
#        67146
#        86618
#        102095
#        126365
#        154875
#        175865
#        194162
#
# Disc length: 2858 seconds
#
# Revision: 0
# Processed by: cddbd v1.5.2PL0 Copyright (c) Steve Scherf et al.
# Submitted via: ExactAudioCopy v1.0b1
#
DISCID=9b0b260a
DTITLE=Jimmy Dawkins - Chicago On My Mind
DYEAR=1991
DGENRE=Chicago Blues
TTITLE0=Chicago On My Mind
TTITLE1=Low Down Dirty Dog
TTITLE2=Blues In The Ghetto
TTITLE3=Lick For Licks
TTITLE4=I've Been Walking All Night Long
TTITLE5=Out Of Business
TTITLE6=Don't Bring Me Your Trouble, Baby
TTITLE7=Let Me Have My Way
TTITLE8=I Wonder Why Do You Things You Do To Me
TTITLE9=The Way She Walks
EXTD=
EXTT0=
EXTT1=
EXTT2=
EXTT3=
EXTT4=
EXTT5=
EXTT6=
EXTT7=
EXTT8=
EXTT9=
PLAYORDER=
